<?xml version="1.0" encoding="UTF-8" standalone="no"?>
<svg width="22px" height="22px" viewBox="0 0 22 22" version="1.1" xmlns="http://www.w3.org/2000/svg" xmlns:xlink="http://www.w3.org/1999/xlink">
    <!-- Generator: Sketch 44.1 (41455) - http://www.bohemiancoding.com/sketch -->
    <title>删除设备</title>
    <desc>Created with Sketch.</desc>
    <defs></defs>
    <g id="Page-1" stroke="none" stroke-width="1" fill="none" fill-rule="evenodd">
        <g id="房源－设备信息" transform="translate(-1320.000000, -258.000000)" fill-rule="nonzero" fill="#4A4A4A">
            <g id="智能门锁" transform="translate(321.000000, 178.000000)">
                <g id="删除设备" transform="translate(999.000000, 80.000000)">
                    <path d="M6.05,15.95 C6.18671429,16.0867143 6.35957143,16.1558571 6.53085714,16.1558571 C6.70214286,16.1558571 6.875,16.0867143 7.01171429,15.95 L11,11.9617143 L14.9867143,15.95 C15.125,16.0867143 15.2962857,16.1558571 15.4691429,16.1558571 C15.642,16.1558571 15.8132857,16.0867143 15.9515714,15.95 C16.2265714,15.6734286 16.2265714,15.2617143 15.9515714,14.9867143 L11.9617143,11 L15.95,7.01328571 C16.225,6.73828571 16.225,6.325 15.95,6.05 C15.6734286,5.775 15.2617143,5.775 14.9867143,6.05 L11,10.0382857 L7.01171429,6.05 C6.73671429,5.775 6.32342857,5.775 6.05,6.05 C5.775,6.325 5.775,6.73828571 6.05,7.01328571 L10.0382857,11 L6.05,14.9867143 C5.775,15.2632857 5.775,15.675 6.05,15.95 L6.05,15.95 Z M11,22 C13.9212857,22 16.7058571,20.8654286 18.7675714,18.7675714 C20.8308571,16.7058571 22,13.9212857 22,11 C22,8.07871429 20.8654286,5.29414286 18.7675714,3.23085714 C16.7058571,1.13457143 13.9212857,0 11,0 C8.07871429,0 5.29414286,1.13457143 3.23085714,3.23085714 C1.13457143,5.29414286 0,8.07871429 0,11 C0,13.9212857 1.13457143,16.7058571 3.23085714,18.7675714 C5.29414286,20.8654286 8.07871429,22 11,22 L11,22 Z M4.19414286,4.19414286 C6.01542857,2.37128571 8.42128571,1.375 11,1.375 C13.5787143,1.375 15.9845714,2.37128571 17.8058571,4.19414286 C19.6271429,6.01542857 20.625,8.42128571 20.625,11 C20.625,13.5787143 19.6271429,15.9845714 17.8058571,17.8058571 C15.9845714,19.6271429 13.5787143,20.625 11,20.625 C8.42128571,20.625 6.01542857,19.6271429 4.19414286,17.8058571 C2.37128571,15.9845714 1.375,13.5787143 1.375,11 C1.375,8.42128571 2.37128571,6.01542857 4.19414286,4.19414286 L4.19414286,4.19414286 Z" id="Shape"></path>
                </g>
            </g>
        </g>
    </g>
</svg>