<?xml version="1.0" encoding="UTF-8" standalone="no"?>
<svg width="22px" height="22px" viewBox="0 0 22 22" version="1.1" xmlns="http://www.w3.org/2000/svg" xmlns:xlink="http://www.w3.org/1999/xlink">
    <!-- Generator: Sketch 44.1 (41455) - http://www.bohemiancoding.com/sketch -->
    <title>开门纪录</title>
    <desc>Created with Sketch.</desc>
    <defs></defs>
    <g id="Page-1" stroke="none" stroke-width="1" fill="none" fill-rule="evenodd">
        <g id="房源－设备信息" transform="translate(-1222.000000, -259.000000)" fill-rule="nonzero">
            <g id="智能门锁" transform="translate(321.000000, 178.000000)">
                <g id="开门纪录" transform="translate(901.000000, 81.000000)">
                    <path d="M17.5498274,10.4220645 L14.2209759,10.4220645 C14.2544943,10.6100884 14.2749262,10.8023492 14.2749262,11 C14.2749262,11.1976508 14.2544943,11.3899116 14.2209759,11.5779355 L17.5498274,11.5779355 C17.8688414,11.5779355 18.127763,11.319014 18.127763,11 C18.127763,10.680986 17.8688414,10.4220645 17.5498274,10.4220645 Z" id="Shape" fill="#000000"></path>
                    <path d="M11.5779105,7.7790241 L11.5779105,4.45017257 C11.5779105,4.13115858 11.3189889,3.87223703 10.9999749,3.87223703 C10.6809609,3.87223703 10.4220394,4.13115855 10.4220394,4.45017257 L10.4220394,7.7790241 C10.6100633,7.7455057 10.8023241,7.72507375 10.9999749,7.72507375 C11.1976508,7.72507375 11.3899116,7.74550568 11.5779105,7.7790241 Z" id="Shape" fill="#000000"></path>
                    <path d="M9.26621846,11 C9.26621846,11.9575411 10.0424589,12.7337815 11,12.7337815 C11.9575411,12.7337815 12.7337815,11.9575411 12.7337815,11 C12.7337816,10.3805795 12.4033247,9.80821135 11.8668908,9.4985011 C11.3304569,9.18879085 10.6695431,9.18879085 10.1331092,9.4985011 C9.59667533,9.80821135 9.26621844,10.3805795 9.26621846,11 L9.26621846,11 Z" id="Shape" fill="#4A4A4A"></path>
                    <path d="M11,0.0194003007 C4.93562538,0.0194003007 0.0194003007,4.93562538 0.0194003007,11 C0.0194003007,17.0643746 4.93562538,21.9805997 11,21.9805997 C17.0643746,21.9805997 21.9805997,17.0643746 21.9805997,11 C21.9805997,4.93562538 17.0643746,0.0194003007 11,0.0194003007 Z M11,20.8247537 C5.5740545,20.8247537 1.1752463,16.4259706 1.1752463,11 C1.1752463,5.57402941 5.57402941,1.1752463 11,1.1752463 C16.4259706,1.1752463 20.8247537,5.57402941 20.8247537,11 C20.8247537,16.4259706 16.4259455,20.8247537 11,20.8247537 Z" id="Shape" fill="#4A4A4A"></path>
                </g>
            </g>
        </g>
    </g>
</svg>